<?xml version="1.0" standalone="no"?>
<!DOCTYPE svg PUBLIC "-//W3C//DTD SVG 20010904//EN"
 "http://www.w3.org/TR/2001/REC-SVG-20010904/DTD/svg10.dtd">
<svg version="1.0" xmlns="http://www.w3.org/2000/svg"
 width="2048.000000pt" height="2048.000000pt" viewBox="0 0 2048.000000 2048.000000"
 preserveAspectRatio="xMidYMid meet">
<metadata>
Created by potrace 1.16, written by Peter Selinger 2001-2019
</metadata>
<g transform="translate(0.000000,2048.000000) scale(0.100000,-0.100000)"
fill="#000000" stroke="none">
<path d="M9721 19240 c-106 -5 -195 -11 -198 -14 -3 -2 13 -51 35 -108 47
-120 87 -291 101 -433 15 -150 23 -877 11 -1040 -6 -77 -30 -264 -55 -415 -24
-151 -49 -320 -56 -375 -11 -92 -24 -125 -49 -125 -9 0 21 228 70 530 57 355
62 433 55 925 -7 461 -17 582 -61 753 -25 98 -85 257 -104 276 -7 7 -54 4
-142 -8 -257 -35 -604 -113 -891 -200 -117 -36 -526 -181 -535 -191 -3 -3 -11
-100 -18 -217 -47 -748 -112 -1247 -264 -2023 -120 -615 -125 -662 -125 -1320
0 -562 -17 -1199 -35 -1345 -35 -280 -83 -568 -104 -624 -48 -126 -130 -268
-192 -329 -15 -15 -63 -53 -106 -83 -86 -60 -132 -119 -143 -185 -4 -21 -11
-42 -16 -45 -5 -3 -9 -2 -8 3 1 4 -1 16 -6 26 -8 19 12 81 44 134 20 31 73 77
164 140 25 18 62 54 81 80 46 64 122 207 147 280 18 51 67 347 99 593 18 143
35 765 35 1345 1 674 5 716 130 1355 147 753 227 1369 260 2020 3 63 8 130 11
148 l5 32 -53 -20 c-36 -14 -94 -24 -183 -30 -301 -21 -564 -98 -885 -261
-337 -170 -602 -350 -937 -637 -206 -176 -563 -534 -655 -657 -365 -489 -656
-1204 -843 -2075 -30 -141 -72 -293 -120 -440 -129 -392 -203 -660 -311 -1129
-75 -329 -98 -473 -92 -586 3 -44 1 -93 -4 -110 -22 -74 -89 -384 -113 -525
-19 -109 -34 -166 -50 -191 -112 -175 -172 -389 -230 -813 -96 -707 -109
-1397 -39 -2036 17 -158 81 -551 145 -890 58 -311 68 -358 97 -430 29 -73 95
-192 116 -210 17 -13 21 -3 31 75 4 28 26 143 51 258 l44 207 0 239 c0 345 17
484 86 720 47 159 77 236 150 383 102 207 195 341 342 492 49 50 68 64 70 52
2 -11 -27 -46 -80 -95 l-83 -78 -4 -94 c-2 -58 3 -138 14 -209 l17 -115 -31
-125 c-26 -100 -34 -158 -41 -295 -5 -96 -20 -231 -34 -310 -37 -203 -53 -315
-76 -535 -22 -210 -52 -641 -45 -648 19 -19 59 96 100 289 14 68 46 261 70
429 24 168 56 379 70 470 15 91 30 237 35 325 7 115 16 188 35 260 30 120 31
136 5 267 -11 57 -20 135 -20 174 l0 71 48 44 c26 24 61 53 77 65 26 18 30 28
35 90 11 114 34 152 142 232 128 95 270 180 421 252 147 72 136 47 112 250 -8
69 -15 128 -15 133 0 4 8 7 19 7 19 0 27 -41 47 -243 4 -44 11 -66 18 -63 189
78 406 153 492 171 16 3 55 26 85 50 61 51 153 102 249 138 36 14 110 43 165
65 56 22 147 54 203 72 l102 32 0 79 c0 72 2 79 20 79 18 0 20 -7 20 -68 0
-38 2 -71 6 -74 6 -7 136 34 304 94 69 25 170 58 225 74 55 15 115 38 134 51
19 13 48 23 66 23 18 0 47 3 65 6 l32 7 -16 -30 c-17 -34 -80 -100 -208 -220
-71 -67 -88 -88 -88 -111 0 -30 32 -85 79 -136 52 -56 307 -280 360 -315 l55
-36 -55 -8 c-62 -10 -131 -29 -317 -85 -166 -51 -206 -70 -210 -100 -4 -23 55
-175 193 -497 40 -93 112 -273 160 -400 221 -582 338 -861 485 -1155 43 -85
90 -195 105 -245 15 -49 51 -162 80 -250 34 -100 71 -242 99 -380 102 -495
114 -604 156 -1345 11 -201 27 -436 35 -523 8 -86 15 -162 15 -168 0 -6 5 -9
11 -7 7 2 10 158 11 498 1 594 -15 904 -63 1199 -35 219 -122 563 -193 757
-36 100 -76 222 -90 272 -17 60 -67 173 -150 339 -94 189 -141 297 -195 452
-40 113 -78 216 -86 230 -8 14 -53 130 -99 256 -114 315 -302 807 -336 882
-16 36 -25 65 -19 69 21 12 377 122 419 129 25 4 60 16 79 26 28 16 39 18 64
9 43 -14 47 -13 47 15 0 49 -30 83 -132 156 -125 88 -332 263 -377 320 l-34
41 130 127 c112 108 134 134 151 181 l20 55 88 6 c102 8 224 32 299 60 115 43
286 164 439 310 114 108 211 189 227 189 24 0 -1 -308 -38 -464 -22 -96 -26
-134 -27 -286 -1 -178 13 -312 54 -520 13 -66 21 -163 25 -315 4 -121 15 -323
26 -450 11 -126 24 -369 29 -540 12 -406 12 -404 110 -1150 27 -211 37 -316
34 -385 -1 -52 -8 -401 -14 -775 -6 -374 -15 -727 -21 -785 -21 -224 -84 -578
-160 -905 -43 -188 -43 -185 -30 -185 21 0 132 308 186 515 34 131 62 265 92
450 15 88 17 218 18 1055 1 525 -2 1014 -7 1085 -5 72 -22 247 -38 390 -44
395 -49 451 -60 705 -5 129 -23 353 -40 498 -16 144 -30 272 -30 283 0 14 17
-1 58 -53 32 -40 94 -104 136 -142 43 -38 128 -121 189 -184 62 -63 144 -139
182 -169 39 -29 102 -78 140 -108 109 -86 229 -141 360 -165 61 -11 143 -27
183 -35 195 -40 413 -3 614 102 142 75 194 115 244 189 60 90 136 280 173 434
18 74 36 149 41 165 11 41 15 -128 15 -725 0 -403 4 -536 22 -790 13 -168 30
-510 38 -760 21 -624 40 -873 86 -1159 18 -115 55 -286 66 -304 15 -25 18 15
7 105 -28 227 -54 880 -54 1348 0 318 -14 687 -36 980 -9 113 -19 412 -24 665
-8 431 -14 584 -41 980 -6 89 -7 173 -4 187 7 26 10 23 113 -81 75 -75 134
-124 197 -163 132 -81 304 -191 350 -222 22 -16 79 -48 128 -72 56 -29 87 -50
87 -61 0 -9 -70 -86 -155 -171 -85 -85 -155 -159 -155 -166 0 -23 32 -56 54
-56 12 0 135 -22 272 -49 265 -52 394 -95 394 -131 0 -9 -11 -149 -25 -311
-13 -162 -31 -445 -40 -629 -27 -590 -66 -984 -131 -1339 -36 -196 -38 -211
-26 -211 14 0 81 174 120 311 91 319 130 630 177 1409 14 228 29 485 35 571
11 165 3 248 -26 280 -35 38 -203 100 -367 134 -89 18 -186 36 -215 40 l-53 7
99 96 c125 123 195 217 187 249 -3 13 -3 23 1 23 5 0 104 -63 409 -260 197
-128 371 -233 459 -277 96 -48 261 -148 317 -192 25 -20 84 -72 131 -116 l85
-80 52 -142 c100 -277 127 -423 118 -637 -6 -152 -14 -194 -116 -628 -78 -331
-91 -406 -98 -558 -5 -111 -4 -123 10 -110 34 34 218 659 303 1026 44 195 44
488 -2 630 -5 18 -5 18 11 -1 28 -33 93 -168 190 -395 83 -191 218 -485 470
-1022 87 -186 113 -212 101 -105 -12 99 -53 285 -92 408 -52 162 -365 941
-436 1083 -64 129 -130 233 -213 336 -55 69 -69 90 -61 90 19 0 221 -177 313
-276 143 -152 216 -244 295 -367 35 -55 97 -151 139 -215 41 -65 101 -161 133
-214 32 -54 61 -98 65 -98 7 0 37 155 57 300 16 114 38 988 29 1170 -3 69 -13
202 -23 295 -13 129 -17 264 -16 565 0 363 2 413 26 615 27 225 40 376 58 685
15 245 31 342 69 420 17 36 31 74 31 86 0 35 -97 68 -300 100 -135 21 -154 31
-170 89 -14 50 -9 249 10 400 5 44 19 190 30 325 24 280 69 611 105 774 14 61
50 201 80 311 65 241 85 331 124 551 81 459 86 506 85 719 -1 175 -5 222 -32
372 -29 161 -32 220 -11 207 5 -3 5 -14 -1 -25 -8 -14 -7 -19 3 -19 18 0 66
-268 78 -440 14 -195 4 -300 -72 -755 -40 -238 -77 -408 -144 -649 -30 -110
-66 -255 -80 -323 -28 -137 -80 -508 -90 -648 -3 -49 -17 -207 -31 -350 -30
-299 -30 -449 0 -470 10 -8 50 -18 89 -24 40 -6 128 -24 196 -41 182 -43 202
-71 140 -200 -39 -81 -55 -175 -69 -400 -19 -318 -31 -463 -58 -690 -25 -209
-27 -253 -27 -625 0 -300 5 -442 17 -570 27 -270 30 -391 19 -880 -11 -488
-16 -554 -61 -790 l-28 -149 88 -166 c94 -177 196 -360 209 -373 8 -8 5 157
-7 403 -9 181 14 305 87 474 166 383 273 760 317 1111 16 126 17 241 15 1132
l-3 991 41 70 c52 89 98 205 117 290 26 122 37 361 26 581 -8 180 -7 220 10
350 25 188 36 818 19 1064 -30 413 -110 832 -257 1335 -138 472 -403 1045
-664 1437 -25 39 -57 97 -70 130 -13 33 -42 92 -63 130 -56 98 -417 709 -492
830 -34 55 -88 151 -119 214 -69 136 -88 168 -177 288 -133 179 -288 309 -458
384 -119 52 -220 72 -366 71 -139 0 -270 -29 -373 -81 -60 -30 -63 -31 -93
-15 -18 9 -68 31 -112 50 l-80 35 6 -88 c3 -49 24 -180 46 -293 137 -705 160
-889 170 -1345 4 -203 9 -374 11 -380 1 -5 2 -16 1 -24 -2 -24 -28 7 -35 42
-4 18 -11 190 -16 382 -11 434 -30 589 -166 1295 -25 129 -48 277 -51 328 -7
109 5 97 -162 154 -348 118 -696 190 -1086 223 -99 8 -191 17 -205 20 -165 32
-786 51 -1149 35z m-648 -753 c40 -80 32 -308 -26 -752 -36 -273 -42 -283 -96
-196 -28 46 -71 155 -71 181 0 29 22 2 56 -70 21 -44 41 -80 44 -80 12 0 71
520 77 675 5 148 -5 235 -27 235 -11 0 -13 33 -3 44 13 12 28 0 46 -37z m1616
-248 c32 -264 35 -329 17 -490 -27 -238 -42 -309 -72 -339 -23 -22 -25 -23
-20 -5 22 81 66 425 66 525 0 36 -10 156 -21 267 -20 192 -20 260 1 222 5 -8
18 -89 29 -180z m-2358 -461 c0 -2 4 -51 8 -109 11 -143 37 -215 112 -314 79
-106 95 -138 103 -214 9 -90 37 -135 127 -202 81 -61 112 -102 192 -251 55
-100 121 -188 143 -188 8 0 27 8 42 17 49 31 8 -3 -128 -104 -74 -55 -154
-117 -176 -139 -62 -58 -202 -218 -268 -306 -32 -43 -60 -78 -62 -78 -2 0 9
21 26 48 81 131 274 335 439 463 45 34 81 66 81 72 0 5 -17 28 -38 52 -21 24
-58 80 -83 125 -80 149 -121 202 -191 255 -103 77 -130 121 -143 230 -9 71
-22 98 -87 183 -93 122 -118 197 -118 354 0 65 4 108 10 108 6 0 10 -1 11 -2z
m-1667 -343 c5 -11 12 -371 16 -800 7 -617 12 -811 25 -930 9 -82 17 -206 18
-275 2 -188 -6 -206 -199 -398 -127 -127 -158 -164 -184 -219 -45 -94 -101
-295 -107 -383 -5 -71 -2 -81 40 -190 124 -322 164 -545 173 -970 4 -194 11
-312 24 -400 11 -69 24 -183 30 -255 12 -153 13 -162 51 -375 16 -91 33 -230
39 -310 6 -80 20 -206 30 -280 15 -104 16 -136 7 -142 -16 -10 -27 -10 -27 0
0 4 -9 70 -19 147 -11 77 -24 201 -30 276 -6 75 -26 228 -45 340 -19 112 -39
267 -46 344 -6 77 -19 192 -29 255 -14 83 -21 192 -25 395 -9 432 -43 625
-173 970 -44 115 -45 122 -40 200 10 124 84 363 141 454 14 21 79 89 146 152
129 122 167 172 195 258 16 50 17 69 6 220 -7 91 -17 202 -22 246 -5 44 -11
337 -14 650 -3 314 -6 677 -8 807 -3 230 2 269 27 213z m3831 -624 c308 -64
678 -274 935 -531 118 -118 178 -194 271 -346 35 -58 100 -160 143 -227 135
-208 224 -381 407 -792 27 -60 53 -117 58 -125 11 -21 82 -258 115 -385 42
-166 86 -374 101 -480 23 -157 20 -472 -5 -620 -12 -66 -30 -174 -40 -240 -11
-66 -35 -174 -54 -239 -43 -150 -111 -256 -220 -345 -39 -32 -78 -67 -86 -76
-27 -33 -245 -168 -340 -211 -100 -45 -195 -74 -243 -74 -24 0 -28 3 -21 18 4
9 21 58 37 107 16 50 38 111 50 138 24 55 30 56 153 31 109 -23 150 -16 226
39 74 53 89 69 116 122 63 128 84 179 102 260 21 91 32 125 75 245 25 67 125
442 125 466 0 8 -4 14 -9 14 -8 0 -48 -86 -125 -270 -26 -62 -35 -77 -36 -57
0 44 -17 67 -49 67 -35 0 -46 -13 -110 -132 -29 -54 -56 -100 -60 -102 -4 -3
-13 45 -20 106 -17 160 -37 199 -96 184 -30 -8 -46 -38 -109 -213 -31 -83 -59
-144 -78 -165 l-29 -33 5 40 c3 22 22 99 42 170 20 72 47 175 60 230 12 55 39
145 59 200 55 151 74 244 85 429 11 174 8 342 -11 526 -14 144 -40 343 -45
352 -2 4 -11 62 -20 130 -8 68 -23 152 -34 188 -11 36 -34 115 -51 175 -38
134 -56 170 -128 258 -31 38 -76 95 -99 126 -84 109 -125 152 -149 162 -18 7
-49 4 -110 -11 -105 -25 -132 -25 -211 0 -35 11 -89 20 -120 21 -147 2 -181
17 -316 138 -39 35 -85 70 -103 77 -46 20 -104 17 -163 -6 -94 -37 -400 -21
-492 26 -41 21 -58 24 -92 18 -103 -17 -310 -145 -362 -223 -16 -25 -33 -78
-48 -152 -37 -177 -104 -442 -135 -533 -20 -60 -51 -119 -114 -212 -47 -71
-97 -155 -111 -186 -14 -32 -30 -58 -35 -58 -30 0 -251 -156 -251 -177 0 -19
31 -16 65 8 56 37 167 101 170 97 9 -8 -34 -148 -68 -223 -56 -126 -83 -262
-102 -515 -3 -47 -17 -130 -30 -185 -26 -108 -55 -295 -55 -356 0 -21 -4 -40
-8 -43 -4 -2 -25 40 -45 94 -41 106 -54 123 -89 118 -16 -2 -27 -15 -39 -48
-20 -52 -15 -59 -67 102 -34 105 -39 113 -64 116 -34 4 -43 -16 -63 -126 -7
-40 -15 -75 -18 -78 -6 -7 -43 134 -58 221 -15 88 -5 414 16 540 30 178 30
187 9 183 -38 -7 -91 -295 -101 -544 -8 -204 13 -313 115 -584 91 -244 140
-333 202 -365 16 -8 62 -20 102 -26 l73 -12 -3 -235 c-1 -130 -4 -238 -7 -240
-2 -3 -18 -6 -34 -7 -25 -2 -42 10 -104 69 -66 64 -81 86 -147 216 -40 80 -82
155 -93 168 -22 24 -66 29 -84 11 -41 -41 -137 299 -162 576 -27 294 -18 1092
14 1300 31 202 95 387 223 640 76 150 243 386 409 577 105 120 158 169 309
285 137 104 183 131 354 208 68 31 151 74 183 96 33 21 63 39 68 39 6 0 20 6
32 14 23 16 68 22 392 60 250 30 354 31 470 7z m3327 -578 c36 -38 48 -91 48
-208 -1 -186 -29 -293 -149 -560 l-76 -170 0 -115 c1 -148 31 -263 119 -450
35 -74 69 -150 75 -169 19 -59 13 -196 -15 -326 -42 -199 -62 -323 -74 -475
-21 -265 -67 -420 -147 -490 -33 -29 -41 -32 -85 -28 -79 8 -129 70 -172 216
-34 112 -55 156 -141 296 -94 154 -129 231 -150 331 -17 83 -39 388 -33 461 2
24 -1 45 -6 47 -6 2 -6 10 0 20 22 40 32 -5 44 -203 19 -333 35 -394 165 -608
108 -180 118 -200 150 -307 35 -111 49 -141 88 -182 45 -48 85 -46 131 9 67
78 95 186 121 478 16 175 22 211 69 437 28 131 34 257 15 314 -6 19 -40 95
-75 170 -86 183 -118 308 -118 459 -1 128 -14 86 123 403 73 168 92 248 98
403 7 175 -12 234 -77 234 -24 0 -30 -6 -48 -52 -33 -86 -36 -99 -17 -92 14 6
16 1 13 -27 -3 -30 -6 -34 -33 -34 -25 0 -30 4 -33 28 -5 38 32 157 59 190 30
39 95 38 131 0z m-3964 -118 c33 -22 65 -30 174 -46 180 -25 302 -25 368 1 80
32 91 28 184 -57 47 -43 110 -94 142 -112 52 -32 65 -35 168 -42 61 -4 134
-15 161 -23 66 -21 180 -20 256 1 l61 17 19 -25 c11 -13 35 -46 53 -74 19 -27
57 -77 85 -110 83 -95 109 -143 140 -244 15 -53 38 -130 50 -171 12 -41 28
-120 36 -175 8 -55 22 -140 30 -190 8 -49 19 -135 25 -190 5 -55 14 -146 20
-203 5 -56 10 -139 10 -182 l0 -80 -27 0 c-26 0 -31 7 -57 78 -36 96 -68 127
-199 193 -191 96 -455 138 -597 95 -30 -10 -67 -20 -82 -23 -15 -3 -33 -15
-41 -27 -8 -11 -40 -38 -71 -60 l-56 -38 -43 39 c-24 22 -70 50 -103 63 -53
20 -71 22 -169 16 -60 -3 -124 -10 -142 -15 l-32 -9 -11 54 c-10 48 -20 63
-83 126 -39 39 -81 72 -93 74 -13 1 -38 13 -56 27 -55 42 -190 104 -248 115
-152 29 -353 22 -432 -16 -23 -12 -64 -42 -90 -67 -42 -39 -48 -51 -48 -85 l0
-40 61 61 c85 85 127 102 267 107 91 3 112 2 112 -10 0 -11 -17 -13 -77 -12
-42 2 -86 -2 -97 -8 -12 -7 -30 -13 -41 -14 -65 -9 -93 -20 -118 -44 -24 -24
-27 -31 -18 -49 10 -17 9 -21 -4 -21 -25 0 -31 -31 -9 -48 13 -10 15 -16 7
-19 -7 -3 -13 -11 -13 -19 0 -12 8 -13 38 -8 48 9 55 13 48 30 -6 17 21 19 58
4 18 -6 29 -6 39 3 33 31 51 35 82 19 17 -8 38 -19 48 -23 9 -5 26 -15 38 -21
17 -11 22 -10 34 6 11 14 18 16 27 8 7 -5 34 -13 60 -17 40 -6 47 -5 52 13 4
11 2 32 -4 47 -9 23 -1 19 52 -28 50 -46 67 -55 88 -50 21 4 30 -1 44 -22 14
-21 23 -25 44 -21 16 4 39 0 56 -9 48 -25 64 -20 76 26 9 33 14 38 25 29 55
-45 39 -323 -24 -448 -17 -34 -41 -87 -52 -117 -19 -50 -30 -62 -120 -130 -54
-42 -114 -85 -133 -96 -43 -25 -160 -36 -231 -20 -130 27 -212 48 -230 58 -27
15 -165 158 -165 171 0 6 -16 31 -36 57 -47 62 -75 170 -75 288 0 108 6 143
41 232 35 87 45 135 31 135 -6 0 -19 8 -29 18 -10 9 -27 22 -36 27 -17 10 -16
14 7 65 13 30 45 82 69 116 60 80 132 207 152 266 25 75 61 231 96 413 53 274
52 270 128 345 41 39 101 83 151 111 94 52 106 52 179 4z m-4351 -86 c13 -46
32 -131 44 -189 32 -165 36 -175 66 -190 18 -9 85 -16 183 -20 134 -5 161 -9
197 -28 24 -12 60 -26 80 -30 24 -5 39 -14 41 -25 5 -27 -50 -21 -128 13 -63
28 -77 30 -184 30 -227 0 -252 17 -280 184 -9 59 -26 142 -37 184 -11 42 -17
82 -15 89 3 7 1 15 -4 18 -6 4 -10 12 -10 18 0 7 4 6 10 -3 8 -12 10 -11 10 7
0 12 -5 24 -10 26 -6 3 -5 4 1 3 7 -1 23 -40 36 -87z m7948 -642 c30 -32 46
-60 58 -103 47 -168 -10 -530 -87 -550 -38 -9 -53 0 -77 47 -39 78 -62 235
-61 424 0 94 5 182 11 198 10 25 15 27 62 27 49 0 55 -3 94 -43z m-6459 -622
c9 -14 19 -45 21 -68 2 -23 8 -55 13 -72 17 -58 40 -198 40 -246 0 -42 -3 -49
-19 -49 -11 0 -23 5 -26 10 -3 6 -11 10 -17 10 -5 0 4 -25 21 -55 30 -53 28
-74 -4 -61 -19 7 -71 115 -92 191 -21 74 -24 307 -5 343 17 29 48 28 68 -3z
m2109 -74 c-7 -21 -22 -56 -33 -77 -10 -21 -25 -63 -32 -92 -29 -123 -3 -357
46 -425 13 -18 33 -50 45 -72 26 -47 140 -168 185 -196 18 -11 66 -26 106 -34
40 -7 86 -19 101 -24 16 -6 81 -11 146 -11 l118 0 61 39 c64 42 196 146 224
177 9 11 26 43 37 71 11 29 34 80 51 113 28 56 60 208 60 290 0 25 5 31 38 39
20 6 82 11 137 13 86 2 107 -1 151 -21 29 -12 64 -36 80 -52 l29 -30 0 -262
c0 -262 0 -262 29 -350 40 -124 119 -251 187 -304 81 -63 167 -101 266 -118
133 -24 168 -14 327 90 112 73 139 104 197 235 72 163 109 296 109 393 l0 77
36 0 36 0 -7 -127 c-7 -143 -37 -288 -83 -404 -17 -41 -40 -119 -51 -174 -12
-55 -40 -170 -61 -255 -47 -187 -73 -327 -68 -366 4 -35 37 -44 74 -20 31 21
30 18 -7 -57 -45 -88 -76 -184 -89 -274 -9 -61 -24 -105 -70 -198 -32 -66 -73
-150 -89 -186 -40 -85 -90 -141 -198 -222 -105 -77 -171 -112 -256 -133 -34
-9 -145 -52 -247 -96 -394 -171 -367 -163 -515 -163 -120 0 -138 3 -233 33
-56 18 -140 39 -185 47 -63 11 -108 28 -192 71 -217 113 -222 116 -294 204
-30 36 -117 132 -194 215 -181 193 -217 243 -267 371 -70 180 -81 266 -60 512
5 64 14 209 20 322 13 228 39 438 69 557 11 43 25 143 31 223 20 259 37 347
95 478 18 42 41 106 50 142 9 36 18 67 20 70 2 3 21 4 43 2 l40 -4 -13 -37z
m1763 -274 c15 9 25 5 53 -18 35 -29 67 -37 85 -20 5 6 28 6 58 0 28 -5 57 -7
66 -4 10 3 28 -5 43 -19 26 -24 29 -24 66 -12 42 15 52 12 70 -21 10 -21 19
-23 81 -23 38 0 72 -4 75 -10 3 -5 1 -10 -4 -10 -6 0 -11 -7 -11 -15 0 -9 9
-15 25 -15 18 0 28 -7 35 -26 9 -24 14 -26 43 -19 17 4 43 8 57 9 14 0 37 9
52 19 25 17 28 17 52 2 31 -21 33 -45 11 -166 -25 -142 -128 -422 -179 -485
-26 -33 -114 -92 -217 -146 -109 -58 -280 -23 -418 85 -68 53 -132 157 -179
291 l-36 101 -4 221 -4 222 28 -6 c25 -4 26 -3 21 20 -6 21 0 30 30 51 l37 27
24 -22 c18 -18 26 -20 40 -11z m-5530 -592 c16 -13 34 -37 40 -52 6 -16 13
-138 16 -283 3 -191 10 -289 25 -390 23 -144 89 -506 120 -661 25 -124 44
-276 36 -289 -9 -14 -48 -13 -130 5 -92 19 -169 19 -212 -2 -34 -16 -35 -18
-28 -57 22 -130 27 -207 35 -556 5 -212 10 -394 12 -405 5 -32 -28 -31 -36 2
-4 15 -11 201 -16 413 -8 366 -17 484 -41 557 -13 41 -9 48 51 78 58 30 121
32 237 10 43 -8 81 -15 85 -15 11 0 -1 89 -37 280 -131 688 -137 732 -141
1038 -3 278 -5 287 -63 312 -25 10 -46 10 -109 0 -108 -18 -137 -18 -137 0 0
18 92 37 192 39 63 1 75 -2 101 -24z m3146 -408 c13 -19 27 -27 47 -27 33 0
41 11 49 65 l6 40 17 -40 c10 -21 35 -62 56 -90 l38 -51 -5 -97 c-5 -111 -5
-110 -97 -78 -46 16 -53 23 -87 87 -21 38 -38 75 -38 83 0 7 -18 56 -40 107
-39 91 -47 133 -33 183 5 19 12 7 38 -65 17 -49 40 -102 49 -117z m3420 -396
c12 -107 17 -127 36 -143 12 -10 29 -18 37 -18 22 0 62 47 108 125 l39 68 9
-39 c10 -47 2 -180 -16 -246 -10 -40 -29 -65 -115 -153 -57 -58 -115 -108
-129 -111 -40 -10 -223 17 -223 32 0 24 42 128 81 199 51 94 109 256 109 306
0 38 40 135 46 114 2 -5 10 -66 18 -134z m-3718 -111 c11 0 25 5 32 12 17 17
25 6 62 -84 55 -134 117 -225 207 -305 68 -60 89 -73 116 -73 l34 0 -8 -47
c-4 -27 -8 -89 -8 -138 l-1 -90 -77 -52 c-43 -29 -124 -94 -179 -146 -90 -82
-165 -139 -339 -254 -83 -55 -251 -99 -407 -105 -43 -2 -78 -3 -78 -1 0 1 53
30 117 65 131 71 198 130 283 250 86 121 144 247 185 403 20 77 54 198 76 269
21 70 39 132 39 137 0 5 -16 30 -36 55 -34 45 -74 115 -74 130 0 4 8 0 18 -9
10 -10 27 -17 38 -17z m5220 -459 c34 -16 65 -35 70 -43 5 -7 9 -112 11 -233
2 -194 -1 -229 -18 -295 -77 -284 -67 -532 43 -1090 64 -330 67 -484 13 -921
-31 -253 -30 -248 -52 -227 -14 15 -14 28 2 150 69 531 68 628 -4 998 -108
555 -118 817 -43 1091 19 65 21 99 19 289 l-2 215 -54 28 c-98 49 -217 35
-297 -36 -82 -72 -86 -98 -54 -306 11 -75 24 -228 29 -372 11 -258 21 -324 82
-544 58 -209 52 -259 -55 -484 -63 -132 -136 -328 -162 -433 -3 -16 -10 -25
-15 -22 -6 3 -7 -5 -3 -20 5 -20 2 -26 -10 -26 -9 0 -16 5 -16 11 0 5 6 7 13
3 9 -6 9 -4 1 7 -9 10 -8 28 2 69 37 145 92 297 150 419 108 226 112 256 59
458 -69 257 -75 301 -85 566 -5 137 -16 287 -25 335 -40 232 -31 288 56 366
62 56 113 74 209 75 63 1 85 -4 136 -28z m-4630 -146 c46 -96 80 -139 279
-353 66 -71 150 -163 186 -203 59 -67 81 -82 214 -154 167 -90 193 -101 281
-115 35 -6 114 -27 176 -47 108 -35 119 -37 253 -37 135 0 143 1 240 36 55 20
154 61 220 91 66 30 121 53 123 52 2 -1 -21 -35 -51 -74 -66 -88 -137 -230
-171 -341 -42 -141 -73 -377 -78 -595 -3 -136 13 -171 25 -55 17 169 78 570
97 640 29 103 97 241 167 336 32 43 66 91 76 106 13 22 36 33 105 53 138 42
173 56 230 92 29 18 54 33 56 33 2 0 -12 -44 -31 -97 -53 -151 -82 -268 -93
-383 -5 -58 -17 -181 -25 -275 -28 -295 -70 -549 -144 -855 -16 -69 -35 -154
-41 -190 -11 -63 -15 -70 -91 -152 -74 -81 -89 -91 -209 -153 -102 -51 -153
-71 -239 -90 -137 -31 -214 -31 -366 1 -66 13 -154 31 -195 39 -88 18 -207 85
-310 174 -36 31 -83 70 -105 86 -22 16 -105 92 -185 170 -80 77 -167 157 -195
177 -49 35 -165 159 -196 208 -28 44 -38 92 -49 228 -6 73 -17 161 -25 195
-46 205 -59 591 -25 757 32 157 45 361 32 487 -13 120 -16 263 -5 314 6 33 6
33 16 9 6 -14 29 -65 53 -115z m3388 -27 c-41 -159 -84 -454 -183 -1253 -28
-221 -53 -408 -57 -418 -7 -20 -23 -22 -29 -4 -3 6 19 208 49 447 102 809 115
899 172 1200 6 33 39 80 55 80 4 0 1 -24 -7 -52z m-6398 -465 c8 -31 -4 -382
-14 -432 -9 -39 -20 -46 -45 -27 -18 14 -35 92 -37 166 -2 51 18 221 31 274 9
38 15 46 35 46 17 0 25 -7 30 -27z"/>
<path d="M9473 14485 c-68 -19 -123 -47 -168 -86 -35 -31 -46 -58 -22 -60 6 0
2 -5 -10 -11 -23 -11 -32 -38 -12 -38 6 0 42 14 81 31 38 17 85 33 104 36 l34
6 0 -47 c0 -39 5 -53 29 -77 l29 -29 -26 0 c-33 0 -105 32 -149 66 -59 45 -74
25 -18 -25 79 -69 103 -76 285 -78 91 -2 178 -4 195 -5 21 -2 30 2 33 14 3 13
-9 19 -57 29 -34 6 -61 14 -61 18 1 3 7 17 15 31 8 14 14 37 15 53 0 15 3 27
8 27 16 0 62 -38 107 -88 46 -51 101 -89 112 -78 7 7 -55 84 -118 148 -64 64
-115 78 -295 79 -141 1 -147 0 -256 -46 -37 -15 -16 15 27 41 68 39 158 64
233 64 63 -1 225 -28 265 -45 27 -11 21 12 -9 31 -70 46 -267 67 -371 39z"/>
<path d="M13326 15258 c-4 -77 -3 -158 3 -193 l10 -60 -3 80 c-2 44 -1 123 3
175 5 78 9 95 23 98 12 2 25 -12 43 -47 41 -82 55 -154 56 -296 l1 -130 14 65
c21 104 18 268 -6 334 -27 70 -62 106 -105 106 l-33 0 -6 -132z"/>
<path d="M10295 14318 c-2 -7 -16 -65 -31 -128 -15 -63 -39 -157 -55 -209
l-28 -94 34 33 c24 24 37 49 50 99 27 108 55 251 55 282 0 29 -17 40 -25 17z"/>
<path d="M9990 13729 c-54 -24 -91 -58 -131 -120 -40 -63 -50 -103 -39 -152
10 -47 32 -72 55 -63 15 5 15 8 1 28 -52 74 22 209 149 274 91 46 59 76 -35
33z"/>
<path d="M9920 12930 c-74 -27 -159 -57 -187 -65 -34 -10 -53 -21 -53 -30 0
-20 14 -17 222 53 l168 55 88 -21 c157 -39 209 -23 74 22 -134 45 -157 44
-312 -14z"/>
<path d="M9675 12813 c-49 -2 -94 -8 -99 -13 -20 -20 45 -28 186 -23 92 4 157
2 176 -5 21 -7 43 -7 66 -1 30 8 46 5 104 -20 82 -34 158 -52 247 -55 36 -2
70 -8 77 -13 30 -24 100 -53 203 -83 176 -52 235 -61 235 -36 0 17 -25 27
-189 72 -161 44 -198 58 -232 91 -23 21 -30 23 -49 13 -34 -18 -167 5 -273 47
-79 32 -93 35 -124 25 -24 -7 -42 -8 -54 -2 -17 10 -74 10 -274 3z"/>
<path d="M9711 12756 c-29 -35 69 -139 175 -187 35 -16 94 -42 130 -59 67 -30
114 -39 114 -20 0 6 -6 10 -14 10 -8 0 -36 15 -63 34 -27 19 -84 48 -127 66
-77 32 -186 117 -186 145 0 21 -16 26 -29 11z"/>
<path d="M10580 12473 c-35 -9 -106 -16 -195 -17 -80 -1 -139 -5 -138 -11 3
-14 93 -34 159 -35 120 0 286 43 269 70 -8 13 -29 11 -95 -7z"/>
<path d="M10978 14207 c-25 -8 -58 -21 -73 -31 -37 -24 -19 -41 22 -21 46 23
140 37 197 30 28 -4 83 -20 122 -35 89 -35 214 -73 221 -67 8 9 -42 37 -154
84 -97 42 -117 47 -198 50 -54 1 -109 -3 -137 -10z"/>
<path d="M11010 14110 c-73 -9 -222 -61 -217 -74 5 -14 45 -10 127 14 36 10
82 21 102 24 l38 5 -15 -29 c-22 -43 -19 -99 7 -127 36 -38 12 -38 -52 1 -66
39 -80 43 -80 23 0 -16 91 -75 150 -98 71 -27 370 -60 370 -41 0 17 -29 29
-87 37 -29 4 -53 9 -53 11 0 3 11 21 25 41 16 25 22 45 19 60 -8 31 1 29 69
-12 59 -36 77 -42 77 -26 0 30 -213 168 -295 190 -44 12 -100 12 -185 1z"/>
</g>
</svg>
