<?xml version="1.0" encoding="UTF-8" standalone="no"?>
<!-- Created with Inkscape (http://www.inkscape.org/) -->

<svg
   xmlns:dc="http://purl.org/dc/elements/1.1/"
   xmlns:cc="http://creativecommons.org/ns#"
   xmlns:rdf="http://www.w3.org/1999/02/22-rdf-syntax-ns#"
   xmlns:svg="http://www.w3.org/2000/svg"
   xmlns="http://www.w3.org/2000/svg"
   xmlns:sodipodi="http://sodipodi.sourceforge.net/DTD/sodipodi-0.dtd"
   xmlns:inkscape="http://www.inkscape.org/namespaces/inkscape"
   width="732.93439"
   height="732.00525"
   id="svg2"
   version="1.1"
   inkscape:version="0.48.4 r9939"
   sodipodi:docname="New document 1">
  <defs
     id="defs4" />
  <sodipodi:namedview
     id="base"
     pagecolor="#ffffff"
     bordercolor="#666666"
     borderopacity="1.0"
     inkscape:pageopacity="0.0"
     inkscape:pageshadow="2"
     inkscape:zoom="0.46358435"
     inkscape:cx="741.30667"
     inkscape:cy="286.83495"
     inkscape:document-units="px"
     inkscape:current-layer="layer1"
     showgrid="false"
     fit-margin-top="0"
     fit-margin-left="0"
     fit-margin-right="0"
     fit-margin-bottom="0"
     inkscape:window-width="1280"
     inkscape:window-height="749"
     inkscape:window-x="0"
     inkscape:window-y="26"
     inkscape:window-maximized="1" />
  <metadata
     id="metadata7">
    <rdf:RDF>
      <cc:Work
         rdf:about="">
        <dc:format>image/svg+xml</dc:format>
        <dc:type
           rdf:resource="http://purl.org/dc/dcmitype/StillImage" />
        <dc:title></dc:title>
      </cc:Work>
    </rdf:RDF>
  </metadata>
  <g
     inkscape:label="Layer 1"
     inkscape:groupmode="layer"
     id="layer1"
     transform="translate(1179.8195,398.0596)">
    <path
       style="fill:#000000"
       d="m -993.43059,311.88987 c -34.85401,-1.67713 -39.43021,-2.71183 -55.13111,-12.46514 -20.6829,-12.84822 -20.6915,-13.35123 -1.0941,-63.23402 23.8023,-60.58552 54.01553,-116.77455 74.57421,-138.689078 11.83509,-12.6156 33.91777,-12.94611 59.80473,-0.89508 10.13764,4.719318 22.74587,8.595718 28.01836,8.614228 34.73777,0.12197 57.70148,-35.475468 39.79526,-61.689048 -12.16994,-17.81598 -30.65418,-25.84809 -58.49675,-25.41903 -42.49002,0.65471 -66.16689,19.07548 -101.43941,78.92053 -22.466,38.116958 -41.2685,56.460888 -57.8723,56.460888 -15.6058,0 -19.8929,-6.30582 -20.102,-29.56731 -0.1743,-19.40482 -0.014,-19.71934 19.1273,-37.533838 10.6167,-9.8808 33.2891,-36.42627 50.383,-58.98997 38.82683,-51.25059 37.67576,-49.78572 50.13986,-63.81072 27.21914,-30.62786 65.3802,-54.78377 103.33563,-65.411322 35.63029,-6.03722 84.87668,-9.23551 110.93751,5.085502 36.87065,20.26354 60.58272,57.10929 71.76758,93.1306305 5.95605,20.5843195 5.83422,55.8982095 -0.43016,124.6966375 -1.80485,19.82162 -1.12212,26.13912 3.60427,33.35254 5.58515,8.52398 13.79954,69.14789 10.72051,79.11941 -0.73841,2.39135 -2.24012,8.46541 -3.33715,13.49798 -1.72719,7.92347 -4.19083,9.43365 -18.37767,11.26514 -21.35491,2.7569 -59.99661,-2.36964 -100.65984,-13.35433 -30.64863,-8.27941 -32.78941,-8.44415 -35.91379,-2.76403 -5.07092,9.21902 -29.77525,32.74041 -45.20264,43.03817 -32.36207,21.60166 -68.35797,29.3259 -124.1513,26.64126 z m 409.37674,-19.48405 c -33.78735,-22.54667 -59.28567,-74.53764 -69.98286,-142.69459 -4.23837,-27.00474 -3.19942,-148.2053875 1.35581,-158.1646075 1.30024,-2.8426905 12.88713,-9.4338505 25.74866,-14.6470105 35.09767,-14.22612 36.69868,-15.90717 35.76286,-37.55115 -1.87638,-43.398762 -42.7286,-98.447602 -90.98627,-122.605032 -63.9746,-35.14582 -138.28496,-41.48524 -211.61527,-18.92376 -24.58336,7.68849 -69.5234,31.04197 -75.53167,34.47549 -10.85301,6.20211 -26.06919,20.34526 -38.63001,20.34526 -11.7,0 -14.0112,-0.92519 -24.332,-12.9828 -17.597,-20.55813 -66.2167,-40.57313 -99.4668,-40.94697 -14.3429,-0.16126 -21.2901,-3.03614 -25.2593,-10.45272 -3.4557,-6.45688 -0.9631,-10.314 22.5326,-34.86926 37.2531,-38.93297 154.16304,-96.33722 236.75185,-116.24811 60.7579,-14.51588 129.35454,-18.90195 190.37445,-6.05663 58.07716,13.48812 91.99569,28.01867 130.25844,55.8021 46.83421,34.00735 71.70745,69.48841 94.00711,134.09887 11.79595,34.17719 13.19431,41.96669 14.22705,79.250902 2.92348,60.14638 -11.12161,117.40981 -34.08016,168.83888 -19.54886,43.109458 -18.75449,40.867858 -28.34898,79.996098 -10.06087,41.0303 -17.43206,103.00392 -14.65835,123.2405 1.75827,12.82789 0.92169,14.91343 -9.23249,23.01563 l -11.16593,8.90952 z m -83.10498,-340.329938 c -10.26564,-23.66897 -26.61648,-42.74752 -49.60627,-57.881622 -28.71791,-18.90495 -50.54213,-24.73603 -92.21459,-24.63827 -46.67544,0.10957 -70.36268,7.19649 -118.82167,35.550332 -13.23583,7.74443 -27.45927,14.08078 -31.60761,14.08078 -11.27468,0 -28.74668,-19.10918 -28.74668,-31.440352 0,-23.06997 48.8557,-57.39987 105.97348,-74.46538 37.4118,-11.17781 95.55199,-12.46203 131.77923,-2.91079 48.85356,12.88017 99.77599,47.32103 121.91138,82.45357 6.68068,10.603332 19.36196,45.177632 19.36196,52.788512 0,2.5699 -8.37461,8.3762 -18.61024,12.90291 -31.78802,14.05818 -30.43273,14.27957 -39.41899,-6.43969 z"
       id="path3009"
       inkscape:connector-curvature="0"
       sodipodi:nodetypes="sssssssssssssscccssssssssssssssccssssssccssccssscsssssssssssss" />
  </g>
</svg>
